<?xml version="1.0" standalone="no"?>
<!DOCTYPE svg PUBLIC "-//W3C//DTD SVG 20010904//EN"
 "http://www.w3.org/TR/2001/REC-SVG-20010904/DTD/svg10.dtd">
<svg version="1.0" xmlns="http://www.w3.org/2000/svg"
 width="400.000000pt" height="400.000000pt" viewBox="0 0 400.000000 400.000000"
 preserveAspectRatio="xMidYMid meet">

<g transform="translate(0.000000,400.000000) scale(0.100000,-0.100000)"
fill="#000000" stroke="none">
<path d="M2438 3593 c7 -3 16 -2 19 1 4 3 -2 6 -13 5 -11 0 -14 -3 -6 -6z"/>
<path d="M2997 3565 c32 -32 35 -39 29 -76 -4 -22 -14 -52 -23 -66 -16 -24
-18 -24 -24 -7 -4 11 -10 31 -13 45 -9 41 -63 87 -125 105 -52 16 -81 16 -421
0 -201 -9 -374 -14 -384 -10 -32 12 -460 -29 -542 -52 -65 -19 -134 -62 -167
-106 -31 -41 -27 -29 -274 -713 -107 -297 -260 -720 -340 -940 -216 -595 -235
-654 -228 -695 10 -54 41 -106 99 -164 121 -121 254 -184 509 -240 l27 -6 0
85 0 85 70 0 70 0 1 -77 c0 -43 3 -85 7 -93 6 -12 32 -16 132 -18 69 -1 348
-7 620 -13 443 -10 502 -9 563 5 172 41 287 151 350 336 8 25 36 120 61 210
25 91 109 395 186 675 269 969 260 934 260 1011 0 119 -55 202 -159 239 -24 8
-51 15 -60 15 -9 -1 9 -9 39 -20 87 -30 114 -78 88 -159 -8 -25 -18 -45 -23
-44 -6 1 -15 20 -20 43 -13 51 -61 102 -118 124 -32 13 -51 30 -78 72 l-36 56
19 71 c14 50 18 93 15 142 -5 92 -29 138 -101 193 -44 33 -48 26 -9 -13z m200
-607 c-3 -8 -6 -5 -6 6 -1 11 2 17 5 13 3 -3 4 -12 1 -19z m-500 -1280 c-3 -8
-6 -5 -6 6 -1 11 2 17 5 13 3 -3 4 -12 1 -19z m180 0 c-3 -8 -6 -5 -6 6 -1 11
2 17 5 13 3 -3 4 -12 1 -19z m-223 -22 c-3 -15 -8 -25 -11 -23 -2 3 -1 17 3
31 3 15 8 25 11 23 2 -3 1 -17 -3 -31z m173 -8 c-3 -8 -6 -5 -6 6 -1 11 2 17
5 13 3 -3 4 -12 1 -19z m-43 -32 c-3 -15 -8 -25 -11 -23 -2 3 -1 17 3 31 3 15
8 25 11 23 2 -3 1 -17 -3 -31z m-110 -20 c-3 -15 -8 -25 -11 -23 -2 3 -1 17 3
31 3 15 8 25 11 23 2 -3 1 -17 -3 -31z m73 12 c-3 -8 -6 -5 -6 6 -1 11 2 17 5
13 3 -3 4 -12 1 -19z m107 -12 c-3 -15 -8 -25 -11 -23 -2 3 -1 17 3 31 3 15 8
25 11 23 2 -3 1 -17 -3 -31z m-50 -30 c-3 -15 -8 -25 -11 -23 -2 3 -1 17 3 31
3 15 8 25 11 23 2 -3 1 -17 -3 -31z m-180 -10 c-3 -15 -8 -25 -11 -23 -2 3 -1
17 3 31 3 15 8 25 11 23 2 -3 1 -17 -3 -31z m73 12 c-3 -8 -6 -5 -6 6 -1 11 2
17 5 13 3 -3 4 -12 1 -19z m-77 -155 c-23 -76 -48 -148 -57 -161 -24 -38 -84
-102 -96 -102 -6 0 -1 10 10 23 35 38 93 135 99 167 4 16 9 30 13 30 3 0 7 12
8 26 0 15 7 30 13 34 7 4 9 13 6 19 -4 6 -2 11 4 11 6 0 10 6 9 13 -1 6 3 25
9 40 7 16 12 33 12 39 0 6 3 9 6 6 3 -4 -13 -69 -36 -145z m155 -89 c-36 -126
-73 -237 -83 -249 -38 -46 -76 -85 -84 -85 -9 0 32 63 45 68 4 2 7 8 7 13 0 6
9 22 20 37 11 15 31 65 45 112 14 47 31 101 39 120 8 19 27 77 42 127 15 51
29 91 31 89 2 -2 -25 -107 -62 -232z m-91 192 c-3 -15 -8 -25 -11 -23 -2 3 -1
17 3 31 3 15 8 25 11 23 2 -3 1 -17 -3 -31z m70 0 c-3 -15 -8 -25 -11 -23 -2
3 -1 17 3 31 3 15 8 25 11 23 2 -3 1 -17 -3 -31z m-45 -40 c-6 -25 -15 -46
-20 -46 -12 0 -12 17 0 24 5 3 12 22 16 42 3 20 8 34 11 31 3 -2 0 -25 -7 -51z
m56 -47 c-66 -234 -88 -295 -122 -342 -19 -26 -44 -52 -55 -58 -14 -8 -6 9 25
52 37 54 92 186 120 294 1 6 5 15 8 20 3 6 14 38 24 73 10 34 20 60 22 58 2
-2 -8 -46 -22 -97z m-155 81 c0 -5 -2 -10 -4 -10 -3 0 -8 5 -11 10 -3 6 -1 10
4 10 6 0 11 -4 11 -10z m-30 -102 c-12 -40 -24 -81 -26 -90 -3 -10 -11 -24
-17 -30 -7 -7 -25 -30 -40 -50 -15 -21 -37 -43 -49 -49 -16 -9 -12 0 14 32 41
51 82 129 93 177 3 17 11 32 15 32 5 0 7 7 4 15 -4 8 -1 15 5 15 6 0 10 3 10
8 -3 14 1 25 7 20 3 -4 -4 -39 -16 -80z m120 -79 c-46 -158 -50 -167 -92 -222
-49 -62 -76 -67 -29 -5 45 59 65 103 91 194 20 69 63 184 68 179 2 -1 -16 -67
-38 -146z m-41 109 c0 -7 -4 -22 -8 -32 -10 -25 -22 -6 -14 22 6 23 23 31 22
10z m-220 -62 c-22 -47 -71 -96 -77 -78 -2 6 18 40 45 77 52 73 66 73 32 1z
m251 41 c0 -9 -60 -209 -66 -219 -18 -32 -77 -99 -96 -109 -16 -9 -13 0 14 32
44 55 72 105 88 155 7 21 16 44 21 50 5 6 6 13 4 16 -3 3 0 18 6 34 7 16 12
32 11 37 -1 4 3 7 8 7 6 0 10 -1 10 -3z m-50 -43 c0 -4 -9 -37 -20 -73 -20
-68 -76 -151 -120 -180 -18 -12 -14 -3 19 38 49 63 76 112 86 159 3 17 11 32
15 32 5 0 7 7 4 15 -4 8 -1 15 5 15 6 0 11 -3 11 -6z m154 -68 c-3 -15 -8 -25
-11 -23 -2 3 -1 17 3 31 3 15 8 25 11 23 2 -3 1 -17 -3 -31z m-23 -77 c-6 -16
-10 -18 -10 -7 -1 22 12 55 16 42 2 -6 -1 -22 -6 -35z m-2001 -37 c0 -5 -9
-18 -20 -30 -16 -16 -32 -22 -66 -22 -54 0 -55 16 -3 42 35 19 89 24 89 10z
m1969 -72 c-15 -48 -35 -85 -62 -116 -22 -25 -42 -42 -45 -39 -3 3 6 18 20 33
35 38 74 109 88 161 6 23 14 41 17 38 2 -3 -5 -37 -18 -77z m-1004 -69 c295
-7 285 -7 -210 -8 -286 -1 -531 3 -545 7 -30 10 328 10 755 1z m344 -37 c9 -8
-1045 -2 -1069 6 -14 5 220 6 520 3 300 -3 547 -7 549 -9z m-160 -30 c9 -8
-855 -2 -874 6 -12 5 168 6 425 3 245 -3 447 -7 449 -9z m-306 -22 c158 -1
287 -5 287 -9 0 -5 -133 -8 -296 -8 -273 0 -297 -1 -309 -18 -10 -14 -25 -18
-64 -16 -60 3 -84 14 -61 29 11 7 7 10 -20 10 -19 0 -41 4 -47 8 -7 4 40 8
105 7 64 0 246 -2 405 -3z m1211 -54 c-27 -54 -54 -88 -70 -88 -9 0 2 24 33
71 47 70 70 81 37 17z m-1136 15 c-64 -2 -172 -2 -240 0 -68 1 -15 3 117 3
132 0 187 -2 123 -3z m-408 -32 c0 -5 -7 -11 -14 -14 -10 -4 -13 -1 -9 9 6 15
23 19 23 5z m730 0 l185 -7 -190 -1 c-104 0 -280 3 -390 7 l-200 6 205 1 c113
0 288 -3 390 -6z"/>
<path d="M2338 3583 c7 -3 16 -2 19 1 4 3 -2 6 -13 5 -11 0 -14 -3 -6 -6z"/>
<path d="M2193 3573 c9 -2 25 -2 35 0 9 3 1 5 -18 5 -19 0 -27 -2 -17 -5z"/>
<path d="M2088 3563 c12 -2 32 -2 45 0 12 2 2 4 -23 4 -25 0 -35 -2 -22 -4z"/>
<path d="M1260 577 c0 -13 -13 -17 -72 -19 l-71 -3 -29 -85 c-15 -46 -28 -88
-28 -93 0 -5 20 7 45 28 37 30 48 35 60 25 8 -7 15 -18 15 -25 0 -7 6 -17 13
-23 10 -9 20 11 46 95 18 58 30 108 27 111 -3 3 -6 -2 -6 -11z"/>
</g>
</svg>
